<svg xmlns="http://www.w3.org/2000/svg" width="24" height="24" viewBox="0 0 24 24" fill="none">
  <path
    d="M20 18.75V10.25C20 10.0948 19.9639 9.94164 19.8944 9.80279C19.825 9.66393 19.7242 9.54315 19.6 9.45L12.6 4.2C12.4269 4.07018 12.2164 4 12 4C11.7836 4 11.5731 4.07018 11.4 4.2L4.4 9.45C4.2758 9.54315 4.175 9.66393 4.10557 9.80279C4.03614 9.94164 4 10.0948 4 10.25V18.75C4 19.0152 4.10536 19.2696 4.29289 19.4571C4.48043 19.6446 4.73478 19.75 5 19.75H9C9.26522 19.75 9.51957 19.6446 9.70711 19.4571C9.89464 19.2696 10 19.0152 10 18.75V15.75C10 15.4848 10.1054 15.2304 10.2929 15.0429C10.4804 14.8554 10.7348 14.75 11 14.75H13C13.2652 14.75 13.5196 14.8554 13.7071 15.0429C13.8946 15.2304 14 15.4848 14 15.75V18.75C14 19.0152 14.1054 19.2696 14.2929 19.4571C14.4804 19.6446 14.7348 19.75 15 19.75H19C19.2652 19.75 19.5196 19.6446 19.7071 19.4571C19.8946 19.2696 20 19.0152 20 18.75Z"
    stroke="#D4D4D8" stroke-width="1.5" stroke-linecap="round" stroke-linejoin="round" />
</svg>